<svg width="28" height="30" viewBox="0 0 28 30" fill="none" xmlns="http://www.w3.org/2000/svg">
<path d="M25.7711 15.8775L20.3147 17.3388L18.2115 16.1255V13.8487L20.2907 12.6548L25.7709 14.1232C25.8811 14.1526 25.9918 14.1671 26.1015 14.1671C26.6644 14.1671 27.1795 13.7911 27.3316 13.2217C27.5139 12.5412 27.1105 11.8418 26.43 11.6597L23.4256 10.8547L26.1953 9.26458C26.8057 8.91396 27.017 8.13454 26.6663 7.52383C26.3144 6.91312 25.5366 6.70155 24.9258 7.05301L22.1505 8.64688L22.9553 5.64145C23.1374 4.96112 22.7345 4.26162 22.0538 4.07951C21.3775 3.90213 20.6753 4.30113 20.4929 4.981L19.0306 10.4376L16.9384 11.6392L14.955 10.4924V8.08623L18.9658 4.0755C19.4637 3.57734 19.4637 2.77047 18.9658 2.27225C18.4678 1.77417 17.6611 1.77417 17.1627 2.27225L14.955 4.47987V1.27504C14.9551 0.570945 14.384 0 13.6799 0C12.9758 0 12.4048 0.57088 12.4048 1.27504V4.46407L10.2132 2.27225C9.71511 1.77417 8.90823 1.77417 8.41001 2.27225C7.91193 2.7704 7.91193 3.57728 8.41001 4.0755L12.4048 8.07023V10.5017L10.4365 11.6372L8.34428 10.4368L6.88298 4.98107C6.70094 4.30119 6.00202 3.90109 5.32221 4.07958C4.64182 4.26169 4.23802 4.96119 4.42033 5.64151L5.22507 8.64642L2.44987 7.05301C1.83806 6.70148 1.05929 6.91261 0.709188 7.52416C0.358759 8.135 0.570078 8.91389 1.18072 9.26452L3.95009 10.8546L0.945635 11.6596C0.265177 11.8417 -0.138487 12.5411 0.0437544 13.2216C0.19627 13.7911 0.71126 14.167 1.27424 14.167C1.38388 14.167 1.49463 14.1525 1.60511 14.1231L7.08608 12.6542L9.16294 13.8466L9.16508 16.1254L7.06121 17.3409L1.60511 15.8774C0.929444 15.7001 0.226255 16.0995 0.0437544 16.7792C-0.138487 17.4594 0.265177 18.159 0.945635 18.3401L3.93908 19.143L1.17755 20.7372C0.567941 21.0895 0.358758 21.8687 0.711325 22.4784C0.947513 22.8887 1.37598 23.1159 1.81617 23.1159C2.03228 23.1159 2.25163 23.0621 2.45259 22.9445L5.22811 21.3428L4.42033 24.3593C4.23802 25.0407 4.64182 25.7381 5.32221 25.9213C5.43237 25.9511 5.54305 25.9652 5.65276 25.9652C6.21548 25.9652 6.73047 25.5887 6.88298 25.0189L8.35153 19.5396L10.4402 18.3345L12.4048 19.4681V21.9307L8.41001 25.9255C7.91193 26.4236 7.91193 27.2303 8.41001 27.7287C8.65909 27.9777 8.98478 28.1012 9.31157 28.1012C9.63726 28.1012 9.96412 27.9777 10.2132 27.7287L12.4048 25.537V28.7249C12.4048 29.4303 12.9758 30 13.6799 30C14.384 30 14.9551 29.4302 14.9551 28.7249V25.521L17.1628 27.7287C17.4118 27.9777 17.7375 28.1012 18.0643 28.1012C18.3912 28.1012 18.7169 27.9777 18.9659 27.7287C19.4638 27.2304 19.4638 26.4237 18.9659 25.9255L14.9551 21.9147V19.4779L16.9365 18.3344L19.0246 19.5395L20.4932 25.0187C20.6455 25.5886 21.1605 25.9651 21.7232 25.9651C21.8325 25.9651 21.9435 25.951 22.0539 25.9211C22.7347 25.7379 23.1375 25.0406 22.9554 24.3591L22.1468 21.3427L24.9233 22.9444C25.1243 23.0619 25.3436 23.1158 25.5598 23.1158C26 23.1158 26.4283 22.8886 26.6646 22.4782C27.0171 21.8686 26.808 21.0895 26.1984 20.737L23.4368 19.1431L26.4302 18.3402C27.1107 18.159 27.5141 17.4594 27.3318 16.7793C27.1506 16.0995 26.4503 15.6992 25.7711 15.8775ZM15.6613 16.1255L13.6878 17.2653L11.7158 16.1254L11.7136 13.8446L13.6878 12.7056L15.6613 13.8463V16.1255Z" fill="#00C8D5"/>
</svg>
