<svg width="25" height="32" viewBox="0 0 25 32" fill="none" xmlns="http://www.w3.org/2000/svg">
<path d="M14.1335 14.0852C14.1335 13.1215 13.3525 12.3405 12.3891 12.3404L14.1335 14.0852ZM14.1335 14.0852C14.1335 15.0487 13.3524 15.8299 12.389 15.8299M14.1335 14.0852L12.389 15.8299M12.389 15.8299C11.4253 15.8299 10.6443 15.0487 10.6442 14.0852L12.389 15.8299ZM12.3885 17.8449H12.389C14.4691 17.8449 16.1551 16.1584 16.1551 14.0785C16.1551 11.9985 14.4691 10.3122 12.389 10.3122C10.3087 10.3122 8.62266 11.9985 8.62266 14.0785L8.62266 14.079C8.62516 16.1577 10.3096 17.8421 12.3885 17.8449ZM10.6442 14.0852C10.6444 13.1217 11.4254 12.3409 12.389 12.3404L10.6442 14.0852Z" fill="#00C8D5" stroke="#00C8D5" stroke-width="0.7"/>
<path d="M6.79233 24.1887L6.79234 24.1897C6.79391 24.7466 7.24486 25.1979 7.80214 25.1995H7.80313L16.9747 25.1995L16.9757 25.1995C17.533 25.1979 17.984 24.7466 17.9855 24.1897V24.1887C17.9855 22.6099 17.412 21.1458 16.3529 20.0653C15.3128 18.9957 13.8809 18.3966 12.389 18.407C10.897 18.3966 9.46527 18.9957 8.42494 20.0653C7.3659 21.1458 6.79233 22.6098 6.79233 24.1887ZM14.9074 21.4797C15.3669 21.9543 15.6899 22.541 15.8461 23.1779H8.93105C9.08642 22.5408 9.4097 21.954 9.87025 21.48C10.5356 20.8072 11.4427 20.4286 12.389 20.4286C13.3351 20.4286 14.2421 20.8072 14.9074 21.4797Z" fill="#00C8D5" stroke="#00C8D5" stroke-width="0.7"/>
<path d="M20.1631 0.65H20.163L4.30396 0.65L4.3038 0.65C2.28626 0.650913 0.650685 2.2862 0.65 4.30385V4.30396L0.65 27.696L0.65 27.6962C0.650685 29.7138 2.28626 31.3491 4.3038 31.35H4.30396H20.163H20.1631C22.1807 31.3491 23.816 29.7138 23.8169 27.6962V27.696V4.30396V4.30381C23.816 2.28622 22.1807 0.650914 20.1631 0.65ZM21.7954 27.6957C21.7925 28.5961 21.063 29.3255 20.1626 29.3284C20.1624 29.3284 20.1622 29.3284 20.162 29.3284H4.30495C4.30474 29.3284 4.30453 29.3284 4.30432 29.3284C3.40389 29.3255 2.67439 28.596 2.67159 27.6955V4.30448C2.67439 3.40398 3.40397 2.6744 4.30447 2.67159H20.1625C21.0629 2.6744 21.7925 3.40389 21.7954 4.30433C21.7954 4.30454 21.7954 4.30475 21.7954 4.30496V27.695C21.7954 27.6953 21.7954 27.6955 21.7954 27.6957Z" fill="#00C8D5" stroke="#00C8D5" stroke-width="0.7"/>
<path d="M8.209 6.74558H16.7423C17.0794 6.74558 17.4019 6.67798 17.6531 6.5524C17.8833 6.4373 18.159 6.21352 18.159 5.86224C18.159 5.51097 17.8833 5.28719 17.6531 5.17209C17.4019 5.0465 17.0794 4.97891 16.7423 4.97891H8.209C7.87179 4.97891 7.54928 5.0465 7.29812 5.1721C7.06786 5.28726 6.79233 5.51106 6.79233 5.86224C6.79233 6.21343 7.06786 6.43723 7.29812 6.55238C7.54928 6.67799 7.87179 6.74558 8.209 6.74558Z" fill="#00C8D5" stroke="#00C8D5" stroke-width="0.7"/>
</svg>
