<svg width="30" height="30" viewBox="0 0 30 30" fill="none" xmlns="http://www.w3.org/2000/svg">
<path d="M20.4573 16.064C21.927 14.9076 22.9998 13.3219 23.5263 11.5275C24.0529 9.73308 24.0071 7.81913 23.3952 6.05196C22.7834 4.28478 21.636 2.75225 20.1126 1.66757C18.5892 0.582886 16.7656 0 14.8955 0C13.0254 0 11.2018 0.582886 9.67836 1.66757C8.15496 2.75225 7.00752 4.28478 6.39568 6.05196C5.78383 7.81913 5.73801 9.73308 6.26458 11.5275C6.79115 13.3219 7.86392 14.9076 9.33366 16.064C6.81523 17.073 4.61782 18.7465 2.97567 20.9061C1.33353 23.0657 0.308214 25.6304 0.00904254 28.3269C-0.0126131 28.5238 0.00471984 28.723 0.0600513 28.9132C0.115383 29.1033 0.207629 29.2807 0.331524 29.4353C0.581741 29.7473 0.945678 29.9472 1.34327 29.9909C1.74087 30.0347 2.13955 29.9187 2.45162 29.6685C2.76369 29.4183 2.96358 29.0543 3.00731 28.6567C3.3365 25.7262 4.73385 23.0197 6.93238 21.0543C9.13091 19.0889 11.9765 18.0024 14.9254 18.0024C17.8744 18.0024 20.72 19.0889 22.9185 21.0543C25.117 23.0197 26.5144 25.7262 26.8436 28.6567C26.8843 29.0251 27.0601 29.3653 27.3369 29.6117C27.6138 29.8581 27.9721 29.9932 28.3427 29.9909H28.5076C28.9006 29.9457 29.2598 29.747 29.5069 29.4381C29.754 29.1293 29.869 28.7352 29.8268 28.3419C29.5263 25.6378 28.4954 23.0664 26.8448 20.9035C25.1943 18.7406 22.9862 17.0676 20.4573 16.064ZM14.8955 14.9996C13.7095 14.9996 12.5501 14.6479 11.564 13.989C10.5778 13.3301 9.80924 12.3936 9.35538 11.2978C8.90151 10.2021 8.78276 8.9964 9.01414 7.83319C9.24551 6.66997 9.81663 5.60149 10.6553 4.76286C11.4939 3.92423 12.5624 3.35311 13.7256 3.12173C14.8888 2.89035 16.0945 3.00911 17.1902 3.46297C18.286 3.91683 19.2225 4.68543 19.8814 5.67155C20.5403 6.65768 20.892 7.81705 20.892 9.00305C20.892 10.5934 20.2602 12.1187 19.1357 13.2432C18.0111 14.3678 16.4858 14.9996 14.8955 14.9996Z" fill="#00C8D5"/>
</svg>
