<svg width="30" height="31" viewBox="0 0 30 31" fill="none" xmlns="http://www.w3.org/2000/svg">
<path d="M29.4937 12.3763L15.9903 0.373198C15.7165 0.132657 15.3645 0 15 0C14.6355 0 14.2835 0.132657 14.0097 0.373198L0.50628 12.3763C0.276775 12.5793 0.114931 12.8477 0.0425099 13.1455C-0.0299116 13.4432 -0.00943874 13.756 0.101176 14.0417C0.209981 14.3237 0.40141 14.5662 0.650391 14.7376C0.899371 14.9089 1.1943 15.0011 1.49653 15.002H2.99692V28.5054C2.99692 28.9033 3.155 29.285 3.43637 29.5664C3.71775 29.8477 4.09938 30.0058 4.4973 30.0058H25.5027C25.9006 30.0058 26.2823 29.8477 26.5636 29.5664C26.845 29.285 27.0031 28.9033 27.0031 28.5054V15.002H28.5035C28.8057 15.0011 29.1006 14.9089 29.3496 14.7376C29.5986 14.5662 29.79 14.3237 29.8988 14.0417C30.0094 13.756 30.0299 13.4432 29.9575 13.1455C29.8851 12.8477 29.7232 12.5793 29.4937 12.3763ZM16.5004 27.005H13.4996V22.5039C13.4996 22.106 13.6577 21.7243 13.9391 21.4429C14.2204 21.1616 14.6021 21.0035 15 21.0035C15.3979 21.0035 15.7796 21.1616 16.0609 21.4429C16.3423 21.7243 16.5004 22.106 16.5004 22.5039V27.005ZM24.0023 27.005H19.5012V22.5039C19.5012 21.3101 19.0269 20.1652 18.1828 19.3211C17.3387 18.4769 16.1938 18.0027 15 18.0027C13.8062 18.0027 12.6613 18.4769 11.8172 19.3211C10.9731 20.1652 10.4988 21.3101 10.4988 22.5039V27.005H5.99769V15.002H24.0023V27.005ZM5.44255 12.0012L15 3.509L24.5575 12.0012H5.44255Z" fill="#00C8D5"/>
</svg>
