<svg width="21" height="30" viewBox="0 0 21 30" fill="none" xmlns="http://www.w3.org/2000/svg">
<path d="M5.21786 30C1.88297 19.011 8.9295 14.9987 8.9295 14.9987C8.43648 20.8625 11.7687 25.4308 11.7687 25.4308C12.9943 25.061 15.3335 23.3328 15.3335 23.3328C15.3335 25.4308 14.0992 29.9974 14.0992 29.9974C14.0992 29.9974 18.4202 26.6564 19.7803 21.1073C21.1388 15.5581 17.1929 9.98718 17.1929 9.98718C17.4306 13.9147 16.1019 17.7776 13.4987 20.7288C13.6289 20.5784 13.7382 20.4114 13.8221 20.2305C14.2898 19.2951 15.0407 16.8641 14.601 11.2346C13.9821 3.33226 6.82192 0 6.82192 0C7.43907 4.81483 5.5885 5.92412 1.25358 15.0634C-3.08134 24.2009 5.21786 30 5.21786 30Z" fill="#00C8D5"/>
</svg>
