<svg width="17" height="30" viewBox="0 0 17 30" fill="none" xmlns="http://www.w3.org/2000/svg">
<path d="M16.9532 10.289C16.8713 10.113 16.6947 10 16.5003 10H10.5752L16.4227 0.767521C16.5202 0.613536 16.5262 0.418536 16.4383 0.259043C16.3503 0.0990236 16.1822 0 16.0002 0H8.00022C7.81073 0 7.6377 0.106992 7.55274 0.276504L0.0527233 15.2765C-0.0247964 15.431 -0.0163003 15.615 0.074696 15.7625C0.16622 15.91 0.326708 16 0.500205 16H5.6417L0.0391879 29.306C-0.0563201 29.5335 0.0286997 29.7975 0.239169 29.9265C0.320146 29.976 0.410146 30 0.499677 30C0.643174 30 0.784678 29.9385 0.882705 29.8225L16.8828 10.8225C17.0082 10.6735 17.0352 10.4655 16.9532 10.289Z" fill="#00C8D5"/>
</svg>
