<svg width="25" height="32" viewBox="0 0 25 32" fill="none" xmlns="http://www.w3.org/2000/svg">
<path d="M14.1335 9.8185C14.1335 8.85481 13.3525 8.07385 12.3891 8.07379L14.1335 9.8185ZM14.1335 9.8185C14.1335 10.782 13.3524 11.5632 12.389 11.5632M14.1335 9.8185L12.389 11.5632M12.389 11.5632C11.4253 11.5632 10.6443 10.7821 10.6442 9.81856L12.389 11.5632ZM12.3885 13.5782H12.389C14.4691 13.5782 16.1551 11.8917 16.1551 9.81189C16.1551 7.73185 14.4691 6.04559 12.389 6.04559C10.3087 6.04559 8.62266 7.73184 8.62266 9.81189L8.62266 9.81232C8.62516 11.891 10.3096 13.5755 12.3885 13.5782ZM10.6442 9.8185C10.6444 8.85508 11.4254 8.0742 12.389 8.07379L10.6442 9.8185Z" fill="#00C8D5" stroke="#00C8D5" stroke-width="0.7"/>
<path d="M6.79233 19.9221L6.79234 19.923C6.79391 20.48 7.24486 20.9313 7.80214 20.9328H7.80313L16.9747 20.9328L16.9757 20.9328C17.533 20.9313 17.984 20.48 17.9855 19.923V19.9221C17.9855 18.3432 17.412 16.8792 16.3529 15.7987C15.3128 14.7291 13.8809 14.13 12.389 14.1403C10.897 14.13 9.46527 14.7291 8.42494 15.7987C7.3659 16.8792 6.79233 18.3432 6.79233 19.9221ZM14.9074 17.2131C15.3669 17.6876 15.6899 18.2743 15.8461 18.9113H8.93105C9.08642 18.2742 9.4097 17.6874 9.87025 17.2133C10.5356 16.5406 11.4427 16.1619 12.389 16.1619C13.3351 16.1619 14.2421 16.5405 14.9074 17.2131Z" fill="#00C8D5" stroke="#00C8D5" stroke-width="0.7"/>
<path d="M20.1631 0.65H20.163L4.30396 0.65L4.3038 0.65C2.28626 0.650913 0.650685 2.2862 0.65 4.30385V4.30396L0.65 27.696L0.65 27.6962C0.650685 29.7138 2.28626 31.3491 4.3038 31.35H4.30396H20.163H20.1631C22.1807 31.3491 23.816 29.7138 23.8169 27.6962V27.696V4.30396V4.30381C23.816 2.28622 22.1807 0.650914 20.1631 0.65ZM21.7954 27.6957C21.7925 28.5961 21.063 29.3255 20.1626 29.3284C20.1624 29.3284 20.1622 29.3284 20.162 29.3284H4.30495C4.30474 29.3284 4.30453 29.3284 4.30432 29.3284C3.40389 29.3255 2.67439 28.596 2.67159 27.6955V4.30448C2.67439 3.40398 3.40397 2.6744 4.30447 2.67159H20.1625C21.0629 2.6744 21.7925 3.40389 21.7954 4.30433C21.7954 4.30454 21.7954 4.30475 21.7954 4.30496V27.695C21.7954 27.6953 21.7954 27.6955 21.7954 27.6957Z" fill="#00C8D5" stroke="#00C8D5" stroke-width="0.7"/>
<path d="M8.209 27.0123H16.7423C17.0794 27.0123 17.4019 26.9447 17.6531 26.8191C17.8833 26.704 18.159 26.4802 18.159 26.1289C18.159 25.7776 17.8833 25.5539 17.6531 25.4388C17.4019 25.3132 17.0794 25.2456 16.7423 25.2456H8.209C7.87179 25.2456 7.54928 25.3132 7.29812 25.4388C7.06786 25.5539 6.79233 25.7777 6.79233 26.1289C6.79233 26.4801 7.06786 26.7039 7.29812 26.8191C7.54928 26.9447 7.87179 27.0123 8.209 27.0123Z" fill="#00C8D5" stroke="#00C8D5" stroke-width="0.7"/>
</svg>
